<svg width="91" height="40" viewBox="0 0 91 40" fill="none" xmlns="http://www.w3.org/2000/svg">
<path d="M88.7089 16.3311C88.1778 15.5251 87.1165 14.9873 85.5225 14.7175C82.9999 14.3141 78.3531 14.0451 74.6348 13.777C72.1114 13.6426 69.988 13.3736 69.1906 13.3736C68.5268 13.2392 67.9957 13.1047 67.4646 12.7013L61.2238 5.57874C58.3029 2.22044 54.0536 0.337891 49.6714 0.337891H17.274C12.6263 0.337891 8.37696 2.89108 6.11994 6.92342L2.40164 13.5081C0.809301 16.3311 0.544621 19.6902 1.60505 22.6468L3.59654 28.2902V29.6349C3.46377 31.1124 3.46377 32.3226 4.26122 33.1285C4.65951 33.5319 5.32334 33.8009 6.25271 33.8009H10.7676C12.0953 37.16 15.2816 39.5796 19.1336 39.5796C22.851 39.5796 26.1702 37.16 27.4978 33.8009H66.0042C67.3319 37.16 70.5191 39.5796 74.3702 39.5796C78.0876 39.5796 81.4076 37.16 82.7344 33.8009H87.6476C87.7812 33.8009 87.9131 33.8009 88.0468 33.6664C88.1795 33.5311 88.1787 33.3975 88.1787 33.263V27.6187C88.1787 25.6026 88.5778 23.7209 88.9753 22.1081C89.1089 19.6894 89.6399 17.6741 88.7097 16.3294L88.7089 16.3311ZM6.11994 32.7268C5.45611 32.7268 5.05781 32.5915 4.92505 32.3234C4.5259 31.92 4.5259 30.8443 4.65951 29.6349V28.2911H10.3685C10.2357 28.9634 10.1029 29.7694 10.1029 30.4417C10.1029 31.2477 10.2357 31.92 10.3685 32.7268H6.11994ZM26.4348 32.7268C26.4348 32.8604 26.3021 33.1302 26.3021 33.2638C26.3021 33.3983 26.1693 33.6673 26.0365 33.8017C24.8416 36.623 22.0536 38.5056 18.8663 38.5056C15.6799 38.5056 12.8919 36.6247 11.6961 33.8017C11.5642 33.6664 11.5633 33.3983 11.4306 33.2638C11.4306 33.1294 11.2978 32.8604 11.2978 32.7268C11.0323 32.0545 10.8987 31.2485 10.8987 30.4417C10.8987 29.6358 11.0314 28.9634 11.2978 28.2911C11.2978 28.1575 11.4306 27.8877 11.4306 27.7541C11.4306 27.6196 11.5642 27.3507 11.5642 27.2162C12.7591 24.3941 15.5472 22.3787 18.7344 22.3787C21.9208 22.3787 24.7089 24.3941 25.9046 27.2162C26.0365 27.3515 26.0365 27.6196 26.0365 27.7541C26.0365 27.8877 26.1702 28.1575 26.1702 28.2911C26.3029 28.9634 26.5685 29.7694 26.5685 30.4417C26.834 31.2477 26.7021 31.92 26.4365 32.7268H26.4348ZM27.4978 32.7268C27.6306 32.0545 27.7633 31.2485 27.7633 30.4417C27.7633 29.6358 27.6297 28.9634 27.4978 28.2911H65.3395C65.2076 28.9634 65.074 29.7694 65.074 30.4417C65.074 31.2477 65.2076 31.92 65.3395 32.7268H27.4978ZM81.5387 32.7268C81.5387 32.8604 81.4068 33.1302 81.4068 33.2638C81.4068 33.3983 81.2731 33.6673 81.1412 33.8017C79.9463 36.623 77.1582 38.5056 73.971 38.5056C70.7838 38.5056 67.9957 36.6247 66.8008 33.8017C66.668 33.6664 66.668 33.3983 66.5353 33.2638C66.5353 33.1294 66.4016 32.8604 66.4016 32.7268C66.1361 32.0545 66.0042 31.2485 66.0042 30.4417C66.0042 29.6358 66.1361 28.9634 66.4016 28.2911C66.4016 28.1575 66.5353 27.8877 66.5353 27.7541C66.5353 27.6196 66.668 27.3507 66.668 27.2162C67.8629 24.3941 70.651 22.3787 73.8374 22.3787C77.0238 22.3787 79.8127 24.3941 81.0076 27.2162C81.1412 27.3515 81.1412 27.6196 81.1412 27.7541C81.1412 27.8877 81.2731 28.1575 81.2731 28.2911C81.4068 28.9634 81.6723 29.7694 81.6723 30.4417C81.9378 31.2477 81.805 31.92 81.5387 32.7268ZM86.7174 32.7268H82.6016C82.7344 32.0545 82.8672 31.2485 82.8672 30.4417C82.8672 29.6358 82.7344 28.9634 82.6016 28.2911H86.7174V32.7268ZM87.6468 21.8417C87.2485 23.4545 86.851 25.3353 86.851 27.2162H82.3361C81.0085 23.857 77.8212 21.4375 73.9702 21.4375C70.1208 21.4375 66.9336 23.857 65.605 27.2162H27.0987C25.771 23.857 22.5846 21.4375 18.7327 21.4375C14.8825 21.4375 11.6961 23.857 10.3685 27.2162H4.1276L2.40164 22.2434C2.00249 21.1685 1.87058 20.0928 1.87058 19.1532H5.05696C5.32249 19.1532 5.58803 18.8843 5.58803 18.6153C5.58803 18.3464 5.32249 18.0783 5.05696 18.0783H1.87058C2.0042 16.6 2.40164 15.2562 3.06632 13.9115L6.78292 7.32683C8.90802 3.56342 12.7582 1.27917 17.0076 1.27917H49.405C53.5216 1.27917 57.5055 3.0264 60.1608 6.11747L66.5344 13.3745L66.6672 13.5081C67.331 13.9115 68.1276 14.3141 68.9242 14.3141C69.7208 14.4494 71.9787 14.583 74.5012 14.7175C78.2187 14.9864 82.8663 15.3898 85.2561 15.6587C86.5846 15.7932 87.3812 16.1966 87.7795 16.8681C88.4425 17.943 88.0451 19.6902 87.6459 21.8409L87.6468 21.8417Z" fill="#0F0F0F" stroke="#0F0F0F" stroke-width="0.3"/>
<path d="M43.4328 18.0784H40.7766C40.5111 18.0784 40.2456 18.3473 40.2456 18.6154C40.2456 18.8844 40.5111 19.1533 40.7766 19.1533H43.432C43.6983 19.1533 43.9639 18.8844 43.9639 18.6154C43.9639 18.3473 43.6983 18.0784 43.4328 18.0784ZM78.3528 27.7542C78.22 27.6197 78.0873 27.3507 77.9545 27.2171C77.0252 26.0069 75.5639 25.2001 73.9715 25.2001C72.3783 25.2001 70.9162 26.0069 69.9886 27.2171C69.8549 27.3507 69.7222 27.6205 69.5886 27.7542C69.4558 27.8878 69.4566 28.1576 69.3239 28.292C69.0583 28.9644 68.7928 29.635 68.7928 30.4418C68.7928 31.2495 69.0583 32.0546 69.3239 32.7269C69.4566 32.8614 69.4566 33.1303 69.5894 33.2639C69.7213 33.3984 69.8549 33.6673 69.9877 33.8018C70.9171 35.0112 72.3775 35.6827 73.9707 35.6827C75.5647 35.6827 77.0252 34.8767 77.9545 33.8018C78.1189 33.6483 78.2539 33.466 78.3528 33.2639C78.4856 33.1295 78.4856 32.8605 78.6183 32.7269C78.8839 32.0546 79.1494 31.2486 79.1494 30.4418C79.1494 29.6359 79.0166 28.9635 78.6183 28.292C78.6183 28.0231 78.4856 27.8886 78.3528 27.7542ZM77.4234 32.7269C77.2907 32.8614 77.1579 33.1303 77.0251 33.2639L76.4941 33.8018C75.8303 34.3388 74.9 34.6078 73.9715 34.6078C73.0422 34.6078 72.2447 34.3388 71.4481 33.8018C71.1826 33.6673 71.0498 33.5329 70.9171 33.2639C70.7843 33.1295 70.6515 32.9959 70.5188 32.7269C70.1205 32.0546 69.8549 31.2486 69.8549 30.4418C69.8549 29.6359 70.1205 28.9635 70.5188 28.292C70.6515 28.1567 70.7843 27.8886 70.9171 27.7542L71.4481 27.2171C72.112 26.6793 73.0413 26.2759 73.9715 26.2759C74.9009 26.2759 75.8303 26.6793 76.4941 27.2163C76.626 27.3507 76.8915 27.4852 77.0251 27.7542C77.1579 27.8878 77.2907 28.0231 77.4234 28.292C77.8217 28.9644 78.0873 29.635 78.0873 30.4418C78.0873 31.2495 77.8217 32.0546 77.4234 32.7269ZM23.2507 27.7542C23.1179 27.6197 22.9852 27.3507 22.8524 27.2171C21.9222 26.0069 20.4609 25.2001 18.8686 25.2001C17.2754 25.2001 15.8149 26.0069 14.8856 27.2171C14.752 27.3507 14.6192 27.6205 14.4864 27.7542C14.3537 27.8878 14.3537 28.1576 14.2209 28.292C13.9554 28.9644 13.6898 29.635 13.6898 30.4418C13.6898 31.2495 13.9554 32.0546 14.2209 32.7269C14.3545 32.8614 14.3545 33.1303 14.4864 33.2639C14.6192 33.3984 14.752 33.6673 14.8847 33.8018C15.8149 35.0112 17.2762 35.6827 18.8686 35.6827C20.4617 35.6827 21.9222 34.8767 22.8515 33.8018C22.9843 33.6673 23.1179 33.5329 23.2507 33.2639C23.3834 33.1295 23.3834 32.8605 23.5162 32.7269C23.7817 32.0546 24.0473 31.2486 24.0473 30.4418C24.0473 29.6359 23.9137 28.9635 23.5162 28.292C23.3834 28.0231 23.3834 27.8886 23.2507 27.7542ZM22.3213 32.7269C22.1886 32.8614 22.0558 33.1303 21.9222 33.2639L21.3911 33.8018C20.7273 34.3388 19.7979 34.6078 18.8686 34.6078C17.9392 34.6078 17.1426 34.3388 16.346 33.8018C16.1078 33.6955 15.9182 33.5035 15.8149 33.2639C15.6503 33.1107 15.5151 32.9287 15.4158 32.7269C15.0175 32.0546 14.752 31.2486 14.752 30.4418C14.752 29.6359 15.0175 28.9635 15.4158 28.292C15.5494 28.1567 15.6822 27.8886 15.8149 27.7542L16.346 27.2171C17.0098 26.6793 17.9392 26.2759 18.8686 26.2759C19.7979 26.2759 20.7281 26.6793 21.3911 27.2163C21.5239 27.3507 21.7903 27.4852 21.9222 27.7542C22.0549 27.8878 22.1877 28.0231 22.3213 28.292C22.7196 28.9644 22.9851 29.635 22.9851 30.4418C22.9851 31.2495 22.7196 32.0546 22.3213 32.7269ZM22.3205 18.0784H19.6651C19.3988 18.0784 19.1332 18.3473 19.1332 18.6154C19.1332 18.8844 19.3988 19.1533 19.6643 19.1533H22.3196C22.586 19.1533 22.8515 18.8844 22.8515 18.6154C22.8515 18.3473 22.586 18.0784 22.3205 18.0784ZM86.586 17.9499C86.4485 17.9476 86.3133 17.9842 86.1957 18.0554C86.0781 18.1266 85.983 18.2296 85.9213 18.3525L85.1247 22.5193C85.1218 22.6573 85.1576 22.7934 85.228 22.9123C85.2983 23.0311 85.4005 23.1278 85.523 23.1916H85.6558C85.9213 23.1916 86.0541 23.0571 86.1869 22.789L86.9835 18.6222C86.9864 18.4843 86.9508 18.3482 86.8806 18.2294C86.8104 18.1106 86.7083 18.0138 86.586 17.9499ZM57.7724 7.05883C55.6473 4.50564 52.4617 3.02734 49.2745 3.02734H17.8047C14.4856 3.02734 11.5639 4.77458 9.83792 7.73117C9.381 8.52907 9.14062 9.43256 9.14062 10.352C9.14062 11.2715 9.381 12.175 9.83792 12.9729C10.7673 14.5856 12.4932 15.6605 14.352 15.6605H60.826C61.6226 15.6605 62.1537 15.2571 62.552 14.5856C62.8175 13.9133 62.8175 13.1073 62.2864 12.5695L57.7724 7.05883ZM14.3528 14.5848C12.8924 14.5848 11.4311 13.7788 10.7681 12.4342C9.97153 11.0912 9.97153 9.47756 10.7681 8.2682C12.2286 5.715 14.8847 4.10139 17.8056 4.10139H19.9298L18.0711 14.4503H14.352L14.3528 14.5848ZM18.9996 14.5848L20.86 4.37117V4.10224H35.7315L37.192 14.5848H19.0005H18.9996ZM38.1205 14.5848L36.66 4.10309H49.2745C50.7349 4.10309 52.0626 4.37202 53.3911 4.90905L56.4447 14.4512H38.1213V14.5856L38.1205 14.5848ZM61.6226 14.1814C61.4898 14.4503 61.2243 14.7193 60.826 14.7193H57.3741L54.5843 5.84947C55.5145 6.38734 56.3103 7.05883 56.9749 8.00011L61.489 13.3754C61.7545 13.5099 61.7554 13.7788 61.6226 14.1814Z" fill="#0F0F0F"/>
<path d="M57.7724 7.05883C55.6473 4.50564 52.4617 3.02734 49.2745 3.02734H17.8047C14.4856 3.02734 11.5639 4.77458 9.83792 7.73117C9.381 8.52907 9.14062 9.43256 9.14062 10.352C9.14062 11.2715 9.381 12.175 9.83792 12.9729C10.7673 14.5856 12.4932 15.6605 14.352 15.6605H60.826C61.6226 15.6605 62.1537 15.2571 62.552 14.5856C62.8175 13.9133 62.8175 13.1073 62.2864 12.5695L57.7724 7.05883ZM57.7724 7.05883L57.7715 7.05968M43.4328 18.0784H40.7766C40.5111 18.0784 40.2456 18.3473 40.2456 18.6154C40.2456 18.8844 40.5111 19.1533 40.7766 19.1533H43.432C43.6983 19.1533 43.9639 18.8844 43.9639 18.6154C43.9639 18.3473 43.6983 18.0784 43.4328 18.0784ZM78.3528 27.7542C78.22 27.6197 78.0873 27.3507 77.9545 27.2171C77.0252 26.0069 75.5639 25.2001 73.9715 25.2001C72.3783 25.2001 70.9162 26.0069 69.9886 27.2171C69.8549 27.3507 69.7222 27.6205 69.5886 27.7542C69.4558 27.8878 69.4566 28.1576 69.3239 28.292C69.0583 28.9644 68.7928 29.635 68.7928 30.4418C68.7928 31.2495 69.0583 32.0546 69.3239 32.7269C69.4566 32.8614 69.4566 33.1303 69.5894 33.2639C69.7213 33.3984 69.8549 33.6673 69.9877 33.8018C70.9171 35.0112 72.3775 35.6827 73.9707 35.6827C75.5647 35.6827 77.0252 34.8767 77.9545 33.8018C78.1189 33.6483 78.2539 33.466 78.3528 33.2639C78.4856 33.1295 78.4856 32.8605 78.6183 32.7269C78.8839 32.0546 79.1494 31.2486 79.1494 30.4418C79.1494 29.6359 79.0166 28.9635 78.6183 28.292C78.6183 28.0231 78.4856 27.8886 78.3528 27.7542ZM77.4234 32.7269C77.2907 32.8614 77.1579 33.1303 77.0251 33.2639L76.4941 33.8018C75.8303 34.3388 74.9 34.6078 73.9715 34.6078C73.0422 34.6078 72.2447 34.3388 71.4481 33.8018C71.1826 33.6673 71.0498 33.5329 70.9171 33.2639C70.7843 33.1295 70.6515 32.9959 70.5188 32.7269C70.1205 32.0546 69.8549 31.2486 69.8549 30.4418C69.8549 29.6359 70.1205 28.9635 70.5188 28.292C70.6515 28.1567 70.7843 27.8886 70.9171 27.7542L71.4481 27.2171C72.112 26.6793 73.0413 26.2759 73.9715 26.2759C74.9009 26.2759 75.8303 26.6793 76.4941 27.2163C76.626 27.3507 76.8915 27.4852 77.0251 27.7542C77.1579 27.8878 77.2907 28.0231 77.4234 28.292C77.8217 28.9644 78.0873 29.635 78.0873 30.4418C78.0873 31.2495 77.8217 32.0546 77.4234 32.7269ZM23.2507 27.7542C23.1179 27.6197 22.9852 27.3507 22.8524 27.2171C21.9222 26.0069 20.4609 25.2001 18.8686 25.2001C17.2754 25.2001 15.8149 26.0069 14.8856 27.2171C14.752 27.3507 14.6192 27.6205 14.4864 27.7542C14.3537 27.8878 14.3537 28.1576 14.2209 28.292C13.9554 28.9644 13.6898 29.635 13.6898 30.4418C13.6898 31.2495 13.9554 32.0546 14.2209 32.7269C14.3545 32.8614 14.3545 33.1303 14.4864 33.2639C14.6192 33.3984 14.752 33.6673 14.8847 33.8018C15.8149 35.0112 17.2762 35.6827 18.8686 35.6827C20.4617 35.6827 21.9222 34.8767 22.8515 33.8018C22.9843 33.6673 23.1179 33.5329 23.2507 33.2639C23.3834 33.1295 23.3834 32.8605 23.5162 32.7269C23.7817 32.0546 24.0473 31.2486 24.0473 30.4418C24.0473 29.6359 23.9137 28.9635 23.5162 28.292C23.3834 28.0231 23.3834 27.8886 23.2507 27.7542ZM22.3213 32.7269C22.1886 32.8614 22.0558 33.1303 21.9222 33.2639L21.3911 33.8018C20.7273 34.3388 19.7979 34.6078 18.8686 34.6078C17.9392 34.6078 17.1426 34.3388 16.346 33.8018C16.1078 33.6955 15.9182 33.5035 15.8149 33.2639C15.6503 33.1107 15.5151 32.9287 15.4158 32.7269C15.0175 32.0546 14.752 31.2486 14.752 30.4418C14.752 29.6359 15.0175 28.9635 15.4158 28.292C15.5494 28.1567 15.6822 27.8886 15.8149 27.7542L16.346 27.2171C17.0098 26.6793 17.9392 26.2759 18.8686 26.2759C19.7979 26.2759 20.7281 26.6793 21.3911 27.2163C21.5239 27.3507 21.7903 27.4852 21.9222 27.7542C22.0549 27.8878 22.1877 28.0231 22.3213 28.292C22.7196 28.9644 22.9851 29.635 22.9851 30.4418C22.9851 31.2495 22.7196 32.0546 22.3213 32.7269ZM22.3205 18.0784H19.6652C19.3988 18.0784 19.1332 18.3473 19.1332 18.6154C19.1332 18.8844 19.3988 19.1533 19.6643 19.1533H22.3196C22.586 19.1533 22.8515 18.8844 22.8515 18.6154C22.8515 18.3473 22.586 18.0784 22.3205 18.0784ZM86.586 17.9499C86.4486 17.9476 86.3133 17.9842 86.1957 18.0554C86.0781 18.1266 85.983 18.2296 85.9213 18.3525L85.1247 22.5193C85.1218 22.6573 85.1576 22.7934 85.2279 22.9123C85.2983 23.0311 85.4005 23.1278 85.523 23.1916H85.6558C85.9213 23.1916 86.0541 23.0571 86.1868 22.789L86.9834 18.6222C86.9864 18.4843 86.9508 18.3482 86.8806 18.2294C86.8104 18.1106 86.7083 18.0138 86.586 17.9499ZM14.3528 14.5848C12.8924 14.5848 11.4311 13.7788 10.7681 12.4342C9.97153 11.0912 9.97153 9.47756 10.7681 8.26819C12.2286 5.715 14.8847 4.10139 17.8056 4.10139H19.9298L18.0711 14.4503H14.352L14.3528 14.5848ZM18.9996 14.5848L20.86 4.37117V4.10224H35.7315L37.192 14.5848H19.0005H18.9996ZM38.1205 14.5848L36.66 4.10309H49.2745C50.7349 4.10309 52.0626 4.37202 53.3911 4.90905L56.4447 14.4512H38.1213V14.5856L38.1205 14.5848ZM61.6226 14.1814C61.4898 14.4503 61.2243 14.7193 60.826 14.7193H57.3741L54.5843 5.84947C55.5145 6.38734 56.3103 7.05883 56.9749 8.00011L61.489 13.3754C61.7545 13.5099 61.7554 13.7788 61.6226 14.1814Z" stroke="#0F0F0F" stroke-width="0.3"/>
</svg>
